<svg width="200" height="200" viewBox="0 0 200 200" fill="none" xmlns="http://www.w3.org/2000/svg">
<mask id="path-1-inside-1_387_5284" fill="white">
<path fill-rule="evenodd" clip-rule="evenodd" d="M99.5 191C150.034 191 191 150.034 191 99.5C191 48.9659 150.034 8 99.5 8C48.9659 8 8 48.9659 8 99.5C8 150.034 48.9659 191 99.5 191ZM99.5 127C114.688 127 127 114.688 127 99.5C127 84.3122 114.688 72 99.5 72C84.3122 72 72 84.3122 72 99.5C72 114.688 84.3122 127 99.5 127Z"/>
</mask>
<path d="M182.688 99.5C182.688 145.443 145.443 182.688 99.5 182.688V199.312C154.625 199.312 199.312 154.625 199.312 99.5H182.688ZM99.5 16.3122C145.443 16.3122 182.688 53.5567 182.688 99.5H199.312C199.312 44.3752 154.625 -0.312242 99.5 -0.312242V16.3122ZM16.3122 99.5C16.3122 53.5567 53.5567 16.3122 99.5 16.3122V-0.312242C44.3752 -0.312242 -0.312242 44.3752 -0.312242 99.5H16.3122ZM99.5 182.688C53.5567 182.688 16.3122 145.443 16.3122 99.5H-0.312242C-0.312242 154.625 44.3752 199.312 99.5 199.312V182.688ZM118.688 99.5C118.688 110.097 110.097 118.688 99.5 118.688V135.312C119.279 135.312 135.312 119.279 135.312 99.5H118.688ZM99.5 80.3122C110.097 80.3122 118.688 88.9029 118.688 99.5H135.312C135.312 79.7215 119.279 63.6878 99.5 63.6878V80.3122ZM80.3122 99.5C80.3122 88.9029 88.9029 80.3122 99.5 80.3122V63.6878C79.7215 63.6878 63.6878 79.7215 63.6878 99.5H80.3122ZM99.5 118.688C88.9029 118.688 80.3122 110.097 80.3122 99.5H63.6878C63.6878 119.279 79.7215 135.312 99.5 135.312V118.688Z" fill="#9380FF" mask="url(#path-1-inside-1_387_5284)"/>
</svg>
