<svg width="200" height="200" viewBox="0 0 200 200" fill="none" xmlns="http://www.w3.org/2000/svg">
<mask id="path-1-inside-1_387_5435" fill="white">
<path fill-rule="evenodd" clip-rule="evenodd" d="M191 25.3122C191 20.7215 187.278 17 182.688 17H16.3122C11.7215 17 8 20.7215 8 25.3122V141.688C8 146.278 11.7215 150 16.3122 150H61.5637C64.3362 150 66.9261 151.382 68.4693 153.686L92.5944 189.693C95.8868 194.607 103.113 194.607 106.406 189.693L130.531 153.686C132.074 151.382 134.664 150 137.436 150H182.688C187.278 150 191 146.278 191 141.688V25.3122Z"/>
</mask>
<path d="M130.531 153.686L123.625 149.059L130.531 153.686ZM92.5944 189.693L99.5 185.066L92.5944 189.693ZM106.406 189.693L99.5 185.066L106.406 189.693ZM68.4693 153.686L75.3749 149.059L68.4693 153.686ZM16.3122 25.3122H182.688V8.68776H16.3122V25.3122ZM16.3122 141.688V25.3122H-0.312242V141.688H16.3122ZM61.5637 141.688H16.3122V158.312H61.5637V141.688ZM99.5 185.066L75.3749 149.059L61.5637 158.312L85.6889 194.32L99.5 185.066ZM123.625 149.059L99.5 185.066L113.311 194.32L137.436 158.312L123.625 149.059ZM182.688 141.688H137.436V158.312H182.688V141.688ZM182.688 25.3122V141.688H199.312V25.3122H182.688ZM182.688 158.312C191.869 158.312 199.312 150.869 199.312 141.688H182.688V158.312ZM137.436 158.312V141.688C131.891 141.688 126.712 144.452 123.625 149.059L137.436 158.312ZM85.6889 194.32C92.2737 204.148 106.726 204.148 113.311 194.32L99.5 185.066C99.4902 185.081 99.4839 185.089 99.482 185.091C99.4802 185.093 99.481 185.092 99.4845 185.089C99.488 185.085 99.4928 185.082 99.4984 185.078C99.5039 185.074 99.5092 185.071 99.5138 185.069C99.523 185.064 99.5267 185.063 99.5233 185.064C99.5217 185.065 99.5186 185.065 99.5144 185.066C99.5101 185.066 99.5052 185.066 99.5 185.066C99.4948 185.066 99.4899 185.066 99.4856 185.066C99.4814 185.065 99.4783 185.065 99.4767 185.064C99.4733 185.063 99.477 185.064 99.4862 185.069C99.4908 185.071 99.4961 185.074 99.5016 185.078C99.5072 185.082 99.512 185.085 99.5155 185.089C99.519 185.092 99.5198 185.093 99.518 185.091C99.5161 185.089 99.5098 185.081 99.5 185.066L85.6889 194.32ZM61.5637 158.312H61.5637L75.3749 149.059C72.2885 144.452 67.1086 141.688 61.5637 141.688V158.312ZM-0.312242 141.688C-0.312242 150.869 7.13079 158.312 16.3122 158.312V141.688H16.3122H-0.312242ZM182.688 25.3122H199.312C199.312 16.1308 191.869 8.68776 182.688 8.68776V25.3122ZM16.3122 8.68776C7.1308 8.68776 -0.312242 16.1308 -0.312242 25.3122H16.3122V25.3122V8.68776Z" fill="#2D2AF9" mask="url(#path-1-inside-1_387_5435)"/>
<path d="M17 50H142" stroke="#2D2AF9" stroke-width="8.31224" stroke-linecap="round"/>
<path d="M17 75H158" stroke="#2D2AF9" stroke-width="8.31224" stroke-linecap="round"/>
<path d="M17 100H117" stroke="#2D2AF9" stroke-width="8.31224" stroke-linecap="round"/>
</svg>
