<svg width="200" height="200" viewBox="0 0 200 200" fill="none" xmlns="http://www.w3.org/2000/svg">
<path d="M106.935 135.131C103.871 141.257 95.1286 141.257 92.0653 135.131L42.3225 35.645C38.9629 28.9258 45.5329 21.5506 52.5941 24.1145L96.6631 40.1158C98.4958 40.7812 100.504 40.7812 102.337 40.1158L146.406 24.1145C153.467 21.5506 160.037 28.9259 156.677 35.645L106.935 135.131Z" stroke="#7FD962" stroke-width="8.31224"/>
<path d="M25.3 137.15C25.3 134.858 23.442 133 21.15 133C18.858 133 17 134.858 17 137.15V182.688C17 187.278 20.7215 191 25.3122 191H174.688C179.278 191 183 187.278 183 182.688V137.15C183 134.858 181.142 133 178.85 133C176.558 133 174.7 134.858 174.7 137.15V182.714H25.3V137.15Z" fill="#7FD962"/>
</svg>
