<svg width="200" height="200" viewBox="0 0 200 200" fill="none" xmlns="http://www.w3.org/2000/svg">
<path d="M186.844 99.5C186.844 147.739 147.739 186.844 99.5 186.844C51.2613 186.844 12.1561 147.739 12.1561 99.5C12.1561 51.2613 51.2613 12.1561 99.5 12.1561C147.739 12.1561 186.844 51.2613 186.844 99.5Z" stroke="#7FD962" stroke-width="8.31224"/>
<path d="M100 8V191" stroke="#7FD962" stroke-width="8.31224"/>
<path d="M187 91V91C131.688 117.55 67.3123 117.55 12 91V91" stroke="#7FD962" stroke-width="8.31224"/>
<path d="M91 12V12C40.1088 51.4199 29.278 123.921 66.4269 176.493L70.3182 182" stroke="#7FD962" stroke-width="8.31224"/>
<path d="M108 12V12C158.891 51.4199 169.722 123.921 132.573 176.493L128.682 182" stroke="#7FD962" stroke-width="8.31224"/>
</svg>
