<svg width="200" height="200" viewBox="0 0 200 200" fill="none" xmlns="http://www.w3.org/2000/svg">
<path d="M12.1561 16.3122C12.1561 14.0169 14.0169 12.1561 16.3122 12.1561L32.6878 12.1561C34.9831 12.1561 36.8439 14.0169 36.8439 16.3122L36.8439 182.688C36.8439 184.983 34.9831 186.844 32.6878 186.844H16.3122C14.0169 186.844 12.1561 184.983 12.1561 182.688L12.1561 16.3122Z" stroke="#242A2C" stroke-width="8.31224"/>
<path d="M37.1561 33.3122C37.1561 31.0169 39.0169 29.1561 41.3122 29.1561H178.242C181.992 29.1561 183.824 33.7313 181.111 36.3197L150.017 65.9776C144.866 70.8901 144.866 79.1099 150.017 84.0223L181.111 113.68C183.824 116.269 181.992 120.844 178.242 120.844H41.3122C39.0169 120.844 37.1561 118.983 37.1561 116.688V33.3122Z" stroke="#242A2C" stroke-width="8.31224"/>
<path d="M42 50H125" stroke="#242A2C" stroke-width="8.31224" stroke-linecap="round"/>
<path d="M42 75H100" stroke="#242A2C" stroke-width="8.31224" stroke-linecap="round"/>
</svg>
