<svg width="200" height="200" viewBox="0 0 200 200" fill="none" xmlns="http://www.w3.org/2000/svg">
<path d="M182.688 46.1561C185.049 46.1561 186.732 48.0292 186.617 50.0742C185.938 62.1172 183.746 73.9482 180.12 85.1069C175.686 98.7546 169.202 111.101 161.077 121.459C152.952 131.816 143.36 139.963 132.884 145.495C124.841 149.741 116.388 152.389 107.812 153.389C106.047 153.595 104.156 152.131 104.156 149.688L104.156 50.3122C104.156 48.0169 106.017 46.1561 108.312 46.1561H182.688Z" stroke="#F20C74" stroke-width="8.31224"/>
<path d="M90.6878 46.1561C93.0493 46.1561 94.732 48.0292 94.6168 50.0742C93.9384 62.1172 91.7463 73.9482 88.1203 85.1069C83.6856 98.7546 77.2024 111.101 69.0767 121.459C60.9518 131.816 51.3601 139.963 40.8836 145.495C32.8411 149.741 24.3884 152.389 15.812 153.389C14.0467 153.595 12.1561 152.131 12.1561 149.688L12.1561 50.3122C12.1561 48.0169 14.0169 46.1561 16.3122 46.1561H90.6878Z" stroke="#F20C74" stroke-width="8.31224"/>
</svg>
